w1000b400r100.ufo
<glyph name="_45" format="2">
  <advance width="1000"/>
  <unicode hex="012D"/>
  
  <outline>
    <component base="cap" xOffset="0" yOffset="0" />
    <component base="cap" xOffset="0" yOffset="50" />
    <contour>
      <point x="0" y="200" type="line"/>
      <point x="0" y="250" type="line"/>
      <point x="400" y="250" type="line"/>
      <point x="400" y="200" type="line"/>
    </contour>
  </outline>
</glyph>
<glyph name="_82" format="2">
  <advance width="1000"/>
  <unicode hex="0152"/>
  <unicode hex="0050"/>
  <outline>
    <component base="cap" xOffset="0" yOffset="0" />
    <component base="cap" xOffset="0" yOffset="420" />
    <contour>
      <point x="0" y="200" type="line"/>
      <point x="0" y="620" type="line"/>
      <point x="400" y="620" type="line"/>
      <point x="400" y="200" type="line"/>
    </contour>
  </outline>
</glyph>
<glyph name="_94" format="2">
  <advance width="1000"/>
  <unicode hex="015E"/>
  <unicode hex="0056"/>
  <outline>
    <component base="cap" xOffset="0" yOffset="0" />
    <component base="cap" xOffset="0" yOffset="540" />
    <contour>
      <point x="0" y="200" type="line"/>
      <point x="0" y="740" type="line"/>
      <point x="400" y="740" type="line"/>
      <point x="400" y="200" type="line"/>
    </contour>
  </outline>
</glyph>
<glyph name="_40.center" format="2">
  <advance width="1000"/>
  <unicode hex="0428"/>
  
  <outline>
    <component base="cap" xOffset="0" yOffset="300" />
    <component base="cap" xOffset="0" yOffset="300" />
    <contour>
      <point x="0" y="500" type="line"/>
      <point x="0" y="500" type="line"/>
      <point x="400" y="500" type="line"/>
      <point x="400" y="500" type="line"/>
    </contour>
  </outline>
</glyph>
<glyph name="_53.center" format="2">
  <advance width="1000"/>
  <unicode hex="0435"/>
  
  <outline>
    <component base="cap" xOffset="0" yOffset="235" />
    <component base="cap" xOffset="0" yOffset="365" />
    <contour>
      <point x="0" y="435" type="line"/>
      <point x="0" y="565" type="line"/>
      <point x="400" y="565" type="line"/>
      <point x="400" y="435" type="line"/>
    </contour>
  </outline>
</glyph>
<glyph name="_79.center" format="2">
  <advance width="1000"/>
  <unicode hex="044F"/>
  
  <outline>
    <component base="cap" xOffset="0" yOffset="105" />
    <component base="cap" xOffset="0" yOffset="495" />
    <contour>
      <point x="0" y="305" type="line"/>
      <point x="0" y="695" type="line"/>
      <point x="400" y="695" type="line"/>
      <point x="400" y="305" type="line"/>
    </contour>
  </outline>
</glyph>
<glyph name="_104.center" format="2">
  <advance width="1000"/>
  <unicode hex="0468"/>
  
  <outline>
    <component base="cap" xOffset="0" yOffset="-20" />
    <component base="cap" xOffset="0" yOffset="620" />
    <contour>
      <point x="0" y="180" type="line"/>
      <point x="0" y="820" type="line"/>
      <point x="400" y="820" type="line"/>
      <point x="400" y="180" type="line"/>
    </contour>
  </outline>
</glyph>
<glyph name="_25.clip.center" format="2">
  <advance width="1000"/>
  
  <outline>
    <contour>
        <point x="0.000" y="568.750"/>

        <point x="56.250" y="625.000"/>
        <point x="125.000" y="625.000" type="curve" smooth="yes"/>
        <point x="275.000" y="625.000" type="line"/>
        <point x="343.750" y="625.000"/>

        <point x="400.000" y="568.750"/>
        <point x="400.000" y="500.000" type="curve" smooth="yes"/>
        <point x="400.000" y="500.000" type="line"/>
        <point x="400.000" y="431.250"/>

        <point x="343.750" y="375.000"/>
        <point x="275.000" y="375.000" type="curve" smooth="yes"/>
        <point x="125.000" y="375.000" type="line"/>
        <point x="56.250" y="375.000"/>

        <point x="0.000" y="431.250"/>
        <point x="0.000" y="500.000" type="curve" smooth="yes"/>
        <point x="0.000" y="500.000" type="line"/>
    </contour>
  </outline>
</glyph>
<glyph name="_26.clip" format="2">
  <advance width="1000"/>
  
  <outline>
    <contour>
        <point x="0.000" y="201.500"/>

        <point x="58.500" y="260.000"/>
        <point x="130.000" y="260.000" type="curve" smooth="yes"/>
        <point x="270.000" y="260.000" type="line"/>
        <point x="341.500" y="260.000"/>

        <point x="400.000" y="201.500"/>
        <point x="400.000" y="130.000" type="curve" smooth="yes"/>
        <point x="400.000" y="130.000" type="line"/>
        <point x="400.000" y="58.500"/>

        <point x="341.500" y="0.000"/>
        <point x="270.000" y="0.000" type="curve" smooth="yes"/>
        <point x="130.000" y="0.000" type="line"/>
        <point x="58.500" y="0.000"/>

        <point x="0.000" y="58.500"/>
        <point x="0.000" y="130.000" type="curve" smooth="yes"/>
        <point x="0.000" y="130.000" type="line"/>
    </contour>
  </outline>
</glyph>
<glyph name="_27.clip" format="2">
  <advance width="1000"/>
  
  <outline>
    <contour>
        <point x="0.000" y="209.250"/>

        <point x="60.750" y="270.000"/>
        <point x="135.000" y="270.000" type="curve" smooth="yes"/>
        <point x="265.000" y="270.000" type="line"/>
        <point x="339.250" y="270.000"/>

        <point x="400.000" y="209.250"/>
        <point x="400.000" y="135.000" type="curve" smooth="yes"/>
        <point x="400.000" y="135.000" type="line"/>
        <point x="400.000" y="60.750"/>

        <point x="339.250" y="0.000"/>
        <point x="265.000" y="0.000" type="curve" smooth="yes"/>
        <point x="135.000" y="0.000" type="line"/>
        <point x="60.750" y="0.000"/>

        <point x="0.000" y="60.750"/>
        <point x="0.000" y="135.000" type="curve" smooth="yes"/>
        <point x="0.000" y="135.000" type="line"/>
    </contour>
  </outline>
</glyph>
<glyph name="_29.clip.center" format="2">
  <advance width="1000"/>
  
  <outline>
    <contour>
        <point x="0.000" y="579.750"/>

        <point x="65.250" y="645.000"/>
        <point x="145.000" y="645.000" type="curve" smooth="yes"/>
        <point x="255.000" y="645.000" type="line"/>
        <point x="334.750" y="645.000"/>

        <point x="400.000" y="579.750"/>
        <point x="400.000" y="500.000" type="curve" smooth="yes"/>
        <point x="400.000" y="500.000" type="line"/>
        <point x="400.000" y="420.250"/>

        <point x="334.750" y="355.000"/>
        <point x="255.000" y="355.000" type="curve" smooth="yes"/>
        <point x="145.000" y="355.000" type="line"/>
        <point x="65.250" y="355.000"/>

        <point x="0.000" y="420.250"/>
        <point x="0.000" y="500.000" type="curve" smooth="yes"/>
        <point x="0.000" y="500.000" type="line"/>
    </contour>
  </outline>
</glyph>
<glyph name="_36.clip" format="2">
  <advance width="1000"/>
  
  <outline>
    <contour>
        <point x="0.000" y="279.000"/>

        <point x="81.000" y="360.000"/>
        <point x="180.000" y="360.000" type="curve" smooth="yes"/>
        <point x="220.000" y="360.000" type="line"/>
        <point x="319.000" y="360.000"/>

        <point x="400.000" y="279.000"/>
        <point x="400.000" y="180.000" type="curve" smooth="yes"/>
        <point x="400.000" y="180.000" type="line"/>
        <point x="400.000" y="81.000"/>

        <point x="319.000" y="0.000"/>
        <point x="220.000" y="0.000" type="curve" smooth="yes"/>
        <point x="180.000" y="0.000" type="line"/>
        <point x="81.000" y="0.000"/>

        <point x="0.000" y="81.000"/>
        <point x="0.000" y="180.000" type="curve" smooth="yes"/>
        <point x="0.000" y="180.000" type="line"/>
    </contour>
  </outline>
</glyph>
<glyph name="_42.clip" format="2">
  <advance width="1000"/>
  
  <outline>
    <contour>
        <point x="0.000" y="325.500"/>

        <point x="94.500" y="420.000"/>
        <point x="210.000" y="420.000" type="curve" smooth="yes"/>
        <point x="190.000" y="420.000" type="line"/>
        <point x="305.500" y="420.000"/>

        <point x="400.000" y="325.500"/>
        <point x="400.000" y="210.000" type="curve" smooth="yes"/>
        <point x="400.000" y="210.000" type="line"/>
        <point x="400.000" y="94.500"/>

        <point x="305.500" y="0.000"/>
        <point x="190.000" y="0.000" type="curve" smooth="yes"/>
        <point x="210.000" y="0.000" type="line"/>
        <point x="94.500" y="0.000"/>

        <point x="0.000" y="94.500"/>
        <point x="0.000" y="210.000" type="curve" smooth="yes"/>
        <point x="0.000" y="210.000" type="line"/>
    </contour>
  </outline>
</glyph>
<glyph name="_47.clip.center" format="2">
  <advance width="1000"/>
  
  <outline>
    <contour>
        <point x="0.000" y="629.250"/>

        <point x="105.750" y="735.000"/>
        <point x="235.000" y="735.000" type="curve" smooth="yes"/>
        <point x="165.000" y="735.000" type="line"/>
        <point x="294.250" y="735.000"/>

        <point x="400.000" y="629.250"/>
        <point x="400.000" y="500.000" type="curve" smooth="yes"/>
        <point x="400.000" y="500.000" type="line"/>
        <point x="400.000" y="370.750"/>

        <point x="294.250" y="265.000"/>
        <point x="165.000" y="265.000" type="curve" smooth="yes"/>
        <point x="235.000" y="265.000" type="line"/>
        <point x="105.750" y="265.000"/>

        <point x="0.000" y="370.750"/>
        <point x="0.000" y="500.000" type="curve" smooth="yes"/>
        <point x="0.000" y="500.000" type="line"/>
    </contour>
  </outline>
</glyph>
<glyph name="_52.clip" format="2">
  <advance width="1000"/>
  
  <outline>
    <contour>
        <point x="0.000" y="403.000"/>

        <point x="117.000" y="520.000"/>
        <point x="260.000" y="520.000" type="curve" smooth="yes"/>
        <point x="140.000" y="520.000" type="line"/>
        <point x="283.000" y="520.000"/>

        <point x="400.000" y="403.000"/>
        <point x="400.000" y="260.000" type="curve" smooth="yes"/>
        <point x="400.000" y="260.000" type="line"/>
        <point x="400.000" y="117.000"/>

        <point x="283.000" y="0.000"/>
        <point x="140.000" y="0.000" type="curve" smooth="yes"/>
        <point x="260.000" y="0.000" type="line"/>
        <point x="117.000" y="0.000"/>

        <point x="0.000" y="117.000"/>
        <point x="0.000" y="260.000" type="curve" smooth="yes"/>
        <point x="0.000" y="260.000" type="line"/>
    </contour>
  </outline>
</glyph>
<glyph name="_53.clip.center" format="2">
  <advance width="1000"/>
  
  <outline>
    <contour>
        <point x="0.000" y="645.750"/>

        <point x="119.250" y="765.000"/>
        <point x="265.000" y="765.000" type="curve" smooth="yes"/>
        <point x="135.000" y="765.000" type="line"/>
        <point x="280.750" y="765.000"/>

        <point x="400.000" y="645.750"/>
        <point x="400.000" y="500.000" type="curve" smooth="yes"/>
        <point x="400.000" y="500.000" type="line"/>
        <point x="400.000" y="354.250"/>

        <point x="280.750" y="235.000"/>
        <point x="135.000" y="235.000" type="curve" smooth="yes"/>
        <point x="265.000" y="235.000" type="line"/>
        <point x="119.250" y="235.000"/>

        <point x="0.000" y="354.250"/>
        <point x="0.000" y="500.000" type="curve" smooth="yes"/>
        <point x="0.000" y="500.000" type="line"/>
    </contour>
  </outline>
</glyph>
<glyph name="_53.clip" format="2">
  <advance width="1000"/>
  
  <outline>
    <contour>
        <point x="0.000" y="410.750"/>

        <point x="119.250" y="530.000"/>
        <point x="265.000" y="530.000" type="curve" smooth="yes"/>
        <point x="135.000" y="530.000" type="line"/>
        <point x="280.750" y="530.000"/>

        <point x="400.000" y="410.750"/>
        <point x="400.000" y="265.000" type="curve" smooth="yes"/>
        <point x="400.000" y="265.000" type="line"/>
        <point x="400.000" y="119.250"/>

        <point x="280.750" y="0.000"/>
        <point x="135.000" y="0.000" type="curve" smooth="yes"/>
        <point x="265.000" y="0.000" type="line"/>
        <point x="119.250" y="0.000"/>

        <point x="0.000" y="119.250"/>
        <point x="0.000" y="265.000" type="curve" smooth="yes"/>
        <point x="0.000" y="265.000" type="line"/>
    </contour>
  </outline>
</glyph>
<glyph name="_54.clip.center" format="2">
  <advance width="1000"/>
  
  <outline>
    <contour>
        <point x="0.000" y="648.500"/>

        <point x="121.500" y="770.000"/>
        <point x="270.000" y="770.000" type="curve" smooth="yes"/>
        <point x="130.000" y="770.000" type="line"/>
        <point x="278.500" y="770.000"/>

        <point x="400.000" y="648.500"/>
        <point x="400.000" y="500.000" type="curve" smooth="yes"/>
        <point x="400.000" y="500.000" type="line"/>
        <point x="400.000" y="351.500"/>

        <point x="278.500" y="230.000"/>
        <point x="130.000" y="230.000" type="curve" smooth="yes"/>
        <point x="270.000" y="230.000" type="line"/>
        <point x="121.500" y="230.000"/>

        <point x="0.000" y="351.500"/>
        <point x="0.000" y="500.000" type="curve" smooth="yes"/>
        <point x="0.000" y="500.000" type="line"/>
    </contour>
  </outline>
</glyph>
<glyph name="_55.clip.center" format="2">
  <advance width="1000"/>
  
  <outline>
    <contour>
        <point x="0.000" y="651.250"/>

        <point x="123.750" y="775.000"/>
        <point x="275.000" y="775.000" type="curve" smooth="yes"/>
        <point x="125.000" y="775.000" type="line"/>
        <point x="276.250" y="775.000"/>

        <point x="400.000" y="651.250"/>
        <point x="400.000" y="500.000" type="curve" smooth="yes"/>
        <point x="400.000" y="500.000" type="line"/>
        <point x="400.000" y="348.750"/>

        <point x="276.250" y="225.000"/>
        <point x="125.000" y="225.000" type="curve" smooth="yes"/>
        <point x="275.000" y="225.000" type="line"/>
        <point x="123.750" y="225.000"/>

        <point x="0.000" y="348.750"/>
        <point x="0.000" y="500.000" type="curve" smooth="yes"/>
        <point x="0.000" y="500.000" type="line"/>
    </contour>
  </outline>
</glyph>
<glyph name="_56.clip" format="2">
  <advance width="1000"/>
  
  <outline>
    <contour>
        <point x="0.000" y="434.000"/>

        <point x="126.000" y="560.000"/>
        <point x="280.000" y="560.000" type="curve" smooth="yes"/>
        <point x="120.000" y="560.000" type="line"/>
        <point x="274.000" y="560.000"/>

        <point x="400.000" y="434.000"/>
        <point x="400.000" y="280.000" type="curve" smooth="yes"/>
        <point x="400.000" y="280.000" type="line"/>
        <point x="400.000" y="126.000"/>

        <point x="274.000" y="0.000"/>
        <point x="120.000" y="0.000" type="curve" smooth="yes"/>
        <point x="280.000" y="0.000" type="line"/>
        <point x="126.000" y="0.000"/>

        <point x="0.000" y="126.000"/>
        <point x="0.000" y="280.000" type="curve" smooth="yes"/>
        <point x="0.000" y="280.000" type="line"/>
    </contour>
  </outline>
</glyph>
<glyph name="_57.clip" format="2">
  <advance width="1000"/>
  
  <outline>
    <contour>
        <point x="0.000" y="441.750"/>

        <point x="128.250" y="570.000"/>
        <point x="285.000" y="570.000" type="curve" smooth="yes"/>
        <point x="115.000" y="570.000" type="line"/>
        <point x="271.750" y="570.000"/>

        <point x="400.000" y="441.750"/>
        <point x="400.000" y="285.000" type="curve" smooth="yes"/>
        <point x="400.000" y="285.000" type="line"/>
        <point x="400.000" y="128.250"/>

        <point x="271.750" y="0.000"/>
        <point x="115.000" y="0.000" type="curve" smooth="yes"/>
        <point x="285.000" y="0.000" type="line"/>
        <point x="128.250" y="0.000"/>

        <point x="0.000" y="128.250"/>
        <point x="0.000" y="285.000" type="curve" smooth="yes"/>
        <point x="0.000" y="285.000" type="line"/>
    </contour>
  </outline>
</glyph>
<glyph name="_59.clip.center" format="2">
  <advance width="1000"/>
  
  <outline>
    <contour>
        <point x="0.000" y="662.250"/>

        <point x="132.750" y="795.000"/>
        <point x="295.000" y="795.000" type="curve" smooth="yes"/>
        <point x="105.000" y="795.000" type="line"/>
        <point x="267.250" y="795.000"/>

        <point x="400.000" y="662.250"/>
        <point x="400.000" y="500.000" type="curve" smooth="yes"/>
        <point x="400.000" y="500.000" type="line"/>
        <point x="400.000" y="337.750"/>

        <point x="267.250" y="205.000"/>
        <point x="105.000" y="205.000" type="curve" smooth="yes"/>
        <point x="295.000" y="205.000" type="line"/>
        <point x="132.750" y="205.000"/>

        <point x="0.000" y="337.750"/>
        <point x="0.000" y="500.000" type="curve" smooth="yes"/>
        <point x="0.000" y="500.000" type="line"/>
    </contour>
  </outline>
</glyph>
<glyph name="_61.clip.center" format="2">
  <advance width="1000"/>
  
  <outline>
    <contour>
        <point x="0.000" y="667.750"/>

        <point x="137.250" y="805.000"/>
        <point x="305.000" y="805.000" type="curve" smooth="yes"/>
        <point x="95.000" y="805.000" type="line"/>
        <point x="262.750" y="805.000"/>

        <point x="400.000" y="667.750"/>
        <point x="400.000" y="500.000" type="curve" smooth="yes"/>
        <point x="400.000" y="500.000" type="line"/>
        <point x="400.000" y="332.250"/>

        <point x="262.750" y="195.000"/>
        <point x="95.000" y="195.000" type="curve" smooth="yes"/>
        <point x="305.000" y="195.000" type="line"/>
        <point x="137.250" y="195.000"/>

        <point x="0.000" y="332.250"/>
        <point x="0.000" y="500.000" type="curve" smooth="yes"/>
        <point x="0.000" y="500.000" type="line"/>
    </contour>
  </outline>
</glyph>
<glyph name="_63.clip.center" format="2">
  <advance width="1000"/>
  
  <outline>
    <contour>
        <point x="0.000" y="673.250"/>

        <point x="141.750" y="815.000"/>
        <point x="315.000" y="815.000" type="curve" smooth="yes"/>
        <point x="85.000" y="815.000" type="line"/>
        <point x="258.250" y="815.000"/>

        <point x="400.000" y="673.250"/>
        <point x="400.000" y="500.000" type="curve" smooth="yes"/>
        <point x="400.000" y="500.000" type="line"/>
        <point x="400.000" y="326.750"/>

        <point x="258.250" y="185.000"/>
        <point x="85.000" y="185.000" type="curve" smooth="yes"/>
        <point x="315.000" y="185.000" type="line"/>
        <point x="141.750" y="185.000"/>

        <point x="0.000" y="326.750"/>
        <point x="0.000" y="500.000" type="curve" smooth="yes"/>
        <point x="0.000" y="500.000" type="line"/>
    </contour>
  </outline>
</glyph>
<glyph name="_67.clip.center" format="2">
  <advance width="1000"/>
  
  <outline>
    <contour>
        <point x="0.000" y="684.250"/>

        <point x="150.750" y="835.000"/>
        <point x="335.000" y="835.000" type="curve" smooth="yes"/>
        <point x="65.000" y="835.000" type="line"/>
        <point x="249.250" y="835.000"/>

        <point x="400.000" y="684.250"/>
        <point x="400.000" y="500.000" type="curve" smooth="yes"/>
        <point x="400.000" y="500.000" type="line"/>
        <point x="400.000" y="315.750"/>

        <point x="249.250" y="165.000"/>
        <point x="65.000" y="165.000" type="curve" smooth="yes"/>
        <point x="335.000" y="165.000" type="line"/>
        <point x="150.750" y="165.000"/>

        <point x="0.000" y="315.750"/>
        <point x="0.000" y="500.000" type="curve" smooth="yes"/>
        <point x="0.000" y="500.000" type="line"/>
    </contour>
  </outline>
</glyph>
<glyph name="_69.clip" format="2">
  <advance width="1000"/>
  
  <outline>
    <contour>
        <point x="0.000" y="534.750"/>

        <point x="155.250" y="690.000"/>
        <point x="345.000" y="690.000" type="curve" smooth="yes"/>
        <point x="55.000" y="690.000" type="line"/>
        <point x="244.750" y="690.000"/>

        <point x="400.000" y="534.750"/>
        <point x="400.000" y="345.000" type="curve" smooth="yes"/>
        <point x="400.000" y="345.000" type="line"/>
        <point x="400.000" y="155.250"/>

        <point x="244.750" y="0.000"/>
        <point x="55.000" y="0.000" type="curve" smooth="yes"/>
        <point x="345.000" y="0.000" type="line"/>
        <point x="155.250" y="0.000"/>

        <point x="0.000" y="155.250"/>
        <point x="0.000" y="345.000" type="curve" smooth="yes"/>
        <point x="0.000" y="345.000" type="line"/>
    </contour>
  </outline>
</glyph>
<glyph name="_7.clip" format="2">
  <advance width="1000"/>
  
  <outline>
    <contour>
        <point x="0.000" y="54.250"/>

        <point x="15.750" y="70.000"/>
        <point x="35.000" y="70.000" type="curve" smooth="yes"/>
        <point x="365.000" y="70.000" type="line"/>
        <point x="384.250" y="70.000"/>

        <point x="400.000" y="54.250"/>
        <point x="400.000" y="35.000" type="curve" smooth="yes"/>
        <point x="400.000" y="35.000" type="line"/>
        <point x="400.000" y="15.750"/>

        <point x="384.250" y="0.000"/>
        <point x="365.000" y="0.000" type="curve" smooth="yes"/>
        <point x="35.000" y="0.000" type="line"/>
        <point x="15.750" y="0.000"/>

        <point x="0.000" y="15.750"/>
        <point x="0.000" y="35.000" type="curve" smooth="yes"/>
        <point x="0.000" y="35.000" type="line"/>
    </contour>
  </outline>
</glyph>
<glyph name="_75.clip" format="2">
  <advance width="1000"/>
  
  <outline>
    <contour>
        <point x="0.000" y="581.250"/>

        <point x="168.750" y="750.000"/>
        <point x="375.000" y="750.000" type="curve" smooth="yes"/>
        <point x="25.000" y="750.000" type="line"/>
        <point x="231.250" y="750.000"/>

        <point x="400.000" y="581.250"/>
        <point x="400.000" y="375.000" type="curve" smooth="yes"/>
        <point x="400.000" y="375.000" type="line"/>
        <point x="400.000" y="168.750"/>

        <point x="231.250" y="0.000"/>
        <point x="25.000" y="0.000" type="curve" smooth="yes"/>
        <point x="375.000" y="0.000" type="line"/>
        <point x="168.750" y="0.000"/>

        <point x="0.000" y="168.750"/>
        <point x="0.000" y="375.000" type="curve" smooth="yes"/>
        <point x="0.000" y="375.000" type="line"/>
    </contour>
  </outline>
</glyph>
<glyph name="_77.clip.center" format="2">
  <advance width="1000"/>
  
  <outline>
    <contour>
        <point x="0.000" y="711.750"/>

        <point x="173.250" y="885.000"/>
        <point x="385.000" y="885.000" type="curve" smooth="yes"/>
        <point x="15.000" y="885.000" type="line"/>
        <point x="226.750" y="885.000"/>

        <point x="400.000" y="711.750"/>
        <point x="400.000" y="500.000" type="curve" smooth="yes"/>
        <point x="400.000" y="500.000" type="line"/>
        <point x="400.000" y="288.250"/>

        <point x="226.750" y="115.000"/>
        <point x="15.000" y="115.000" type="curve" smooth="yes"/>
        <point x="385.000" y="115.000" type="line"/>
        <point x="173.250" y="115.000"/>

        <point x="0.000" y="288.250"/>
        <point x="0.000" y="500.000" type="curve" smooth="yes"/>
        <point x="0.000" y="500.000" type="line"/>
    </contour>
  </outline>
</glyph>
<glyph name="_78.clip.center" format="2">
  <advance width="1000"/>
  
  <outline>
    <contour>
        <point x="0.000" y="714.500"/>

        <point x="175.500" y="890.000"/>
        <point x="390.000" y="890.000" type="curve" smooth="yes"/>
        <point x="10.000" y="890.000" type="line"/>
        <point x="224.500" y="890.000"/>

        <point x="400.000" y="714.500"/>
        <point x="400.000" y="500.000" type="curve" smooth="yes"/>
        <point x="400.000" y="500.000" type="line"/>
        <point x="400.000" y="285.500"/>

        <point x="224.500" y="110.000"/>
        <point x="10.000" y="110.000" type="curve" smooth="yes"/>
        <point x="390.000" y="110.000" type="line"/>
        <point x="175.500" y="110.000"/>

        <point x="0.000" y="285.500"/>
        <point x="0.000" y="500.000" type="curve" smooth="yes"/>
        <point x="0.000" y="500.000" type="line"/>
    </contour>
  </outline>
</glyph>
<glyph name="_90.clip.center" format="2">
  <advance width="1000"/>
  
  <outline>
    <contour>
        <point x="0.000" y="747.500"/>

        <point x="202.500" y="950.000"/>
        <point x="450.000" y="950.000" type="curve" smooth="yes"/>
        <point x="-50.000" y="950.000" type="line"/>
        <point x="197.500" y="950.000"/>

        <point x="400.000" y="747.500"/>
        <point x="400.000" y="500.000" type="curve" smooth="yes"/>
        <point x="400.000" y="500.000" type="line"/>
        <point x="400.000" y="252.500"/>

        <point x="197.500" y="50.000"/>
        <point x="-50.000" y="50.000" type="curve" smooth="yes"/>
        <point x="450.000" y="50.000" type="line"/>
        <point x="202.500" y="50.000"/>

        <point x="0.000" y="252.500"/>
        <point x="0.000" y="500.000" type="curve" smooth="yes"/>
        <point x="0.000" y="500.000" type="line"/>
    </contour>
  </outline>
</glyph>
<glyph name="_91.clip.center" format="2">
  <advance width="1000"/>
  
  <outline>
    <contour>
        <point x="0.000" y="750.250"/>

        <point x="204.750" y="955.000"/>
        <point x="455.000" y="955.000" type="curve" smooth="yes"/>
        <point x="-55.000" y="955.000" type="line"/>
        <point x="195.250" y="955.000"/>

        <point x="400.000" y="750.250"/>
        <point x="400.000" y="500.000" type="curve" smooth="yes"/>
        <point x="400.000" y="500.000" type="line"/>
        <point x="400.000" y="249.750"/>

        <point x="195.250" y="45.000"/>
        <point x="-55.000" y="45.000" type="curve" smooth="yes"/>
        <point x="455.000" y="45.000" type="line"/>
        <point x="204.750" y="45.000"/>

        <point x="0.000" y="249.750"/>
        <point x="0.000" y="500.000" type="curve" smooth="yes"/>
        <point x="0.000" y="500.000" type="line"/>
    </contour>
  </outline>
</glyph>
<glyph name="_91.clip" format="2">
  <advance width="1000"/>
  
  <outline>
    <contour>
        <point x="0.000" y="705.250"/>

        <point x="204.750" y="910.000"/>
        <point x="455.000" y="910.000" type="curve" smooth="yes"/>
        <point x="-55.000" y="910.000" type="line"/>
        <point x="195.250" y="910.000"/>

        <point x="400.000" y="705.250"/>
        <point x="400.000" y="455.000" type="curve" smooth="yes"/>
        <point x="400.000" y="455.000" type="line"/>
        <point x="400.000" y="204.750"/>

        <point x="195.250" y="0.000"/>
        <point x="-55.000" y="0.000" type="curve" smooth="yes"/>
        <point x="455.000" y="0.000" type="line"/>
        <point x="204.750" y="0.000"/>

        <point x="0.000" y="204.750"/>
        <point x="0.000" y="455.000" type="curve" smooth="yes"/>
        <point x="0.000" y="455.000" type="line"/>
    </contour>
  </outline>
</glyph>
<glyph name="_92.clip" format="2">
  <advance width="1000"/>
  
  <outline>
    <contour>
        <point x="0.000" y="713.000"/>

        <point x="207.000" y="920.000"/>
        <point x="460.000" y="920.000" type="curve" smooth="yes"/>
        <point x="-60.000" y="920.000" type="line"/>
        <point x="193.000" y="920.000"/>

        <point x="400.000" y="713.000"/>
        <point x="400.000" y="460.000" type="curve" smooth="yes"/>
        <point x="400.000" y="460.000" type="line"/>
        <point x="400.000" y="207.000"/>

        <point x="193.000" y="0.000"/>
        <point x="-60.000" y="0.000" type="curve" smooth="yes"/>
        <point x="460.000" y="0.000" type="line"/>
        <point x="207.000" y="0.000"/>

        <point x="0.000" y="207.000"/>
        <point x="0.000" y="460.000" type="curve" smooth="yes"/>
        <point x="0.000" y="460.000" type="line"/>
    </contour>
  </outline>
</glyph>
<glyph name="_94.clip" format="2">
  <advance width="1000"/>
  
  <outline>
    <contour>
        <point x="0.000" y="728.500"/>

        <point x="211.500" y="940.000"/>
        <point x="470.000" y="940.000" type="curve" smooth="yes"/>
        <point x="-70.000" y="940.000" type="line"/>
        <point x="188.500" y="940.000"/>

        <point x="400.000" y="728.500"/>
        <point x="400.000" y="470.000" type="curve" smooth="yes"/>
        <point x="400.000" y="470.000" type="line"/>
        <point x="400.000" y="211.500"/>

        <point x="188.500" y="0.000"/>
        <point x="-70.000" y="0.000" type="curve" smooth="yes"/>
        <point x="470.000" y="0.000" type="line"/>
        <point x="211.500" y="0.000"/>

        <point x="0.000" y="211.500"/>
        <point x="0.000" y="470.000" type="curve" smooth="yes"/>
        <point x="0.000" y="470.000" type="line"/>
    </contour>
  </outline>
</glyph>
<glyph name="_96.clip" format="2">
  <advance width="1000"/>
  
  <outline>
    <contour>
        <point x="0.000" y="744.000"/>

        <point x="216.000" y="960.000"/>
        <point x="480.000" y="960.000" type="curve" smooth="yes"/>
        <point x="-80.000" y="960.000" type="line"/>
        <point x="184.000" y="960.000"/>

        <point x="400.000" y="744.000"/>
        <point x="400.000" y="480.000" type="curve" smooth="yes"/>
        <point x="400.000" y="480.000" type="line"/>
        <point x="400.000" y="216.000"/>

        <point x="184.000" y="0.000"/>
        <point x="-80.000" y="0.000" type="curve" smooth="yes"/>
        <point x="480.000" y="0.000" type="line"/>
        <point x="216.000" y="0.000"/>

        <point x="0.000" y="216.000"/>
        <point x="0.000" y="480.000" type="curve" smooth="yes"/>
        <point x="0.000" y="480.000" type="line"/>
    </contour>
  </outline>
</glyph>
<glyph name="_99.clip.center" format="2">
  <advance width="1000"/>
  
  <outline>
    <contour>
        <point x="0.000" y="772.250"/>

        <point x="222.750" y="995.000"/>
        <point x="495.000" y="995.000" type="curve" smooth="yes"/>
        <point x="-95.000" y="995.000" type="line"/>
        <point x="177.250" y="995.000"/>

        <point x="400.000" y="772.250"/>
        <point x="400.000" y="500.000" type="curve" smooth="yes"/>
        <point x="400.000" y="500.000" type="line"/>
        <point x="400.000" y="227.750"/>

        <point x="177.250" y="5.000"/>
        <point x="-95.000" y="5.000" type="curve" smooth="yes"/>
        <point x="495.000" y="5.000" type="line"/>
        <point x="222.750" y="5.000"/>

        <point x="0.000" y="227.750"/>
        <point x="0.000" y="500.000" type="curve" smooth="yes"/>
        <point x="0.000" y="500.000" type="line"/>
    </contour>
  </outline>
</glyph>
